HIERARCHY
ROOT Hips
{
  OFFSET 5.84602e-005 68.8428 3.50346
  CHANNELS 6 Xposition Yposition Zposition Zrotation Xrotation Yrotation
  JOINT Spine
  {
    OFFSET 0 8.597 -4.6522
    CHANNELS 3 Zrotation Xrotation Yrotation
    JOINT Spine1
    {
      OFFSET 0 7.8454 0.4098
      CHANNELS 3 Zrotation Xrotation Yrotation
      JOINT Spine2
      {
        OFFSET 0 9.7078 -2.1609
        CHANNELS 3 Zrotation Xrotation Yrotation
        JOINT Neck
        {
          OFFSET 0 21.8761 -0.4549
          CHANNELS 3 Zrotation Xrotation Yrotation
          JOINT Head
          {
            OFFSET 0 12.3537 3.3602
            CHANNELS 3 Zrotation Xrotation Yrotation
            End Site
            {
              OFFSET 0.0001 18.9506 0.5657
            }
          }
        }
        JOINT LeftShoulder
        {
          OFFSET 2.2086 21.1115 7.2329
          CHANNELS 3 Zrotation Xrotation Yrotation
          JOINT LeftArm
          {
            OFFSET 13.1193 3.0282 -4.8998
            CHANNELS 3 Zrotation Xrotation Yrotation
            JOINT LeftForeArm
            {
              OFFSET 27.4081 -0.0973053 -0.2375
              CHANNELS 3 Zrotation Xrotation Yrotation
              JOINT LeftHand
              {
                OFFSET 22.8641 0.0662994 -0.1369
                CHANNELS 3 Zrotation Xrotation Yrotation
                JOINT LeftHandIndex1
                {
                  OFFSET 8.8614 0.775009 2.4612
                  CHANNELS 3 Zrotation Xrotation Yrotation
                  JOINT LeftHandIndex2
                  {
                    OFFSET 3.3146 -0.808304 0.5841
                    CHANNELS 3 Zrotation Xrotation Yrotation
                    JOINT LeftHandIndex3
                    {
                      OFFSET 2.2628 -0.552002 0.3989
                      CHANNELS 3 Zrotation Xrotation Yrotation
                      End Site
                      {
                        OFFSET 1.6102 -0.4807 0.2612
                      }
                    }
                  }
                }
                JOINT LeftHandMiddle1
                {
                  OFFSET 8.9937 0.895004 0.2143
                  CHANNELS 3 Zrotation Xrotation Yrotation
                  JOINT LeftHandMiddle2
                  {
                    OFFSET 4.0984 0.0113983 -0.0242
                    CHANNELS 3 Zrotation Xrotation Yrotation
                    JOINT LeftHandMiddle3
                    {
                      OFFSET 2.2716 0.00689697 -0.0138001
                      CHANNELS 3 Zrotation Xrotation Yrotation
                      End Site
                      {
                        OFFSET 2.0404 -0.1441 0.0027
                      }
                    }
                  }
                }
                JOINT LeftHandRing1
                {
                  OFFSET 8.5234 0.597198 -2.0164
                  CHANNELS 3 Zrotation Xrotation Yrotation
                  JOINT LeftHandRing2
                  {
                    OFFSET 3.7188 -0.188293 -0.2328
                    CHANNELS 3 Zrotation Xrotation Yrotation
                    JOINT LeftHandRing3
                    {
                      OFFSET 2.1191 -0.106598 -0.1332
                      CHANNELS 3 Zrotation Xrotation Yrotation
                      End Site
                      {
                        OFFSET 1.8737 -0.2304 -0.0886
                      }
                    }
                  }
                }
                JOINT LeftHandPinky1
                {
                  OFFSET 7.9094 -0.601089 -3.4825
                  CHANNELS 3 Zrotation Xrotation Yrotation
                  JOINT LeftHandPinky2
                  {
                    OFFSET 2.2874 -0.477005 -0.6314
                    CHANNELS 3 Zrotation Xrotation Yrotation
                    JOINT LeftHandPinky3
                    {
                      OFFSET 1.6774 -0.349396 -0.4633
                      CHANNELS 3 Zrotation Xrotation Yrotation
                      End Site
                      {
                        OFFSET 1.4888 -0.4091 -0.3416
                      }
                    }
                  }
                }
                JOINT LeftHandThumb1
                {
                  OFFSET 1.833 -1.3875 1.3896
                  CHANNELS 3 Zrotation Xrotation Yrotation
                  JOINT LeftHandThumb2
                  {
                    OFFSET 3.4129 -1.121 2.5732
                    CHANNELS 3 Zrotation Xrotation Yrotation
                    JOINT LeftHandThumb3
                    {
                      OFFSET 2.2474 -0.804199 1.6192
                      CHANNELS 3 Zrotation Xrotation Yrotation
                      End Site
                      {
                        OFFSET 1.6527 -0.5689 1.1317
                      }
                    }
                  }
                }
              }
            }
          }
        }
        JOINT RightShoulder
        {
          OFFSET -2.2086 21.1115 7.2329
          CHANNELS 3 Zrotation Xrotation Yrotation
          JOINT RightArm
          {
            OFFSET -13.1216 3.0287 -4.9007
            CHANNELS 3 Zrotation Xrotation Yrotation
            JOINT RightForeArm
            {
              OFFSET -27.4081 -0.0973053 -0.2375
              CHANNELS 3 Zrotation Xrotation Yrotation
              JOINT RightHand
              {
                OFFSET -22.8641 0.0664063 -0.1369
                CHANNELS 3 Zrotation Xrotation Yrotation
                JOINT RightHandIndex1
                {
                  OFFSET -8.8614 0.774994 2.4612
                  CHANNELS 3 Zrotation Xrotation Yrotation
                  JOINT RightHandIndex2
                  {
                    OFFSET -3.3146 -0.808304 0.5841
                    CHANNELS 3 Zrotation Xrotation Yrotation
                    JOINT RightHandIndex3
                    {
                      OFFSET -2.2628 -0.552002 0.3989
                      CHANNELS 3 Zrotation Xrotation Yrotation
                      End Site
                      {
                        OFFSET -1.6102 -0.4807 0.2612
                      }
                    }
                  }
                }
                JOINT RightHandMiddle1
                {
                  OFFSET -8.9937 0.894989 0.2143
                  CHANNELS 3 Zrotation Xrotation Yrotation
                  JOINT RightHandMiddle2
                  {
                    OFFSET -4.0984 0.0113983 -0.0242
                    CHANNELS 3 Zrotation Xrotation Yrotation
                    JOINT RightHandMiddle3
                    {
                      OFFSET -2.2716 0.00691223 -0.0138001
                      CHANNELS 3 Zrotation Xrotation Yrotation
                      End Site
                      {
                        OFFSET -2.0404 -0.1441 0.0027
                      }
                    }
                  }
                }
                JOINT RightHandRing1
                {
                  OFFSET -8.5234 0.597198 -2.0164
                  CHANNELS 3 Zrotation Xrotation Yrotation
                  JOINT RightHandRing2
                  {
                    OFFSET -3.7188 -0.188309 -0.2328
                    CHANNELS 3 Zrotation Xrotation Yrotation
                    JOINT RightHandRing3
                    {
                      OFFSET -2.1191 -0.106598 -0.1332
                      CHANNELS 3 Zrotation Xrotation Yrotation
                      End Site
                      {
                        OFFSET -1.8737 -0.2304 -0.0886
                      }
                    }
                  }
                }
                JOINT RightHandPinky1
                {
                  OFFSET -7.9094 -0.601105 -3.4825
                  CHANNELS 3 Zrotation Xrotation Yrotation
                  JOINT RightHandPinky2
                  {
                    OFFSET -2.2874 -0.477005 -0.6314
                    CHANNELS 3 Zrotation Xrotation Yrotation
                    JOINT RightHandPinky3
                    {
                      OFFSET -1.6774 -0.349396 -0.4633
                      CHANNELS 3 Zrotation Xrotation Yrotation
                      End Site
                      {
                        OFFSET -1.4888 -0.4091 -0.3416
                      }
                    }
                  }
                }
                JOINT RightHandThumb1
                {
                  OFFSET -1.833 -1.38751 1.3896
                  CHANNELS 3 Zrotation Xrotation Yrotation
                  JOINT RightHandThumb2
                  {
                    OFFSET -3.41299 -1.12099 2.5732
                    CHANNELS 3 Zrotation Xrotation Yrotation
                    JOINT RightHandThumb3
                    {
                      OFFSET -2.24741 -0.804108 1.6192
                      CHANNELS 3 Zrotation Xrotation Yrotation
                      End Site
                      {
                        OFFSET -1.6527 -0.5689 1.1317
                      }
                    }
                  }
                }
              }
            }
          }
        }
      }
    }
  }
  JOINT RightUpLeg
  {
    OFFSET -9.1966 3.8861 -0.7581
    CHANNELS 3 Zrotation Xrotation Yrotation
    JOINT RightLeg
    {
      OFFSET -0.7359 -41.0265 0
      CHANNELS 3 Zrotation Xrotation Yrotation
      JOINT RightFoot
      {
        OFFSET 0 -40.2855 0
        CHANNELS 3 Zrotation Xrotation Yrotation
        JOINT RightToeBase
        {
          OFFSET 0 -5.6122 11.7359
          CHANNELS 3 Zrotation Xrotation Yrotation
          End Site
          {
            OFFSET 0 0 7.8731
          }
        }
      }
    }
  }
  JOINT LeftUpLeg
  {
    OFFSET 9.1965 3.8864 -0.7581
    CHANNELS 3 Zrotation Xrotation Yrotation
    JOINT LeftLeg
    {
      OFFSET 0.7359 -41.0268 0
      CHANNELS 3 Zrotation Xrotation Yrotation
      JOINT LeftFoot
      {
        OFFSET 0 -40.2855 0
        CHANNELS 3 Zrotation Xrotation Yrotation
        JOINT LeftToeBase
        {
          OFFSET 0 -5.6122 11.7359
          CHANNELS 3 Zrotation Xrotation Yrotation
          End Site
          {
            OFFSET 0 0 7.8731
          }
        }
      }
    }
  }
}
MOTION
Frames:	4
Frame Time:	0.0333333
5.84602e-005 68.8428 3.50346 0 0 -0 0 0 -0 0 0 -0 0 0 -0 0 0 -0 0 0 -0 0 0 -0 0 0 -0 0 0 -0 0 0 -0 0 0 -0 0 0 -0 0 0 -0 0 0 -0 -0.0146107 -8.87603e-005 -2.63497e-007 2.99804e-018 -2.42657e-020 -1.42182e-022 0 0 -0 -0.0187562 -0.001176 5.858e-005 5.06224e-018 3.88251e-019 1.21329e-020 0 0 -0 -0.012269 -0.00324817 0.000675346 -1.74678e-018 3.88251e-019 -0 0 0 -0 0 0 -0 0 0 -0 0 0 -0 0 0 -0 0 0 -0 0 0 -0 0 0 -0 0 0 -0 0 0 -0 0 0 -0 0.0149955 -9.10982e-005 2.64101e-007 -9.69331e-018 1.21329e-020 -4.7394e-023 0 0 -0 0.0189956 -0.00119102 -5.96516e-005 -5.41541e-019 0 2.42657e-020 0 0 -0 0.0122698 -0.00324857 -0.000673756 -2.00796e-019 0 -1.94126e-019 0 0 -0 0 0 -0 0 0 -0 3.39842 1.33031 -0.0637918 -5.65207e-008 0.834868 -0.000436188 -3.39935 -2.16518 -0.0642563 -8.89002e-024 -1.18485e-023 -1.48106e-024 -3.39844 1.35642 0.0640283 -3.18788e-007 0.782166 -0.000588827 3.39931 -2.13858 0.0634662 1.1399e-023 0 -0 
-38.208 31.0555 16.5706 -31.1112 0.00053458 71.8482 -0.250626 7.50831 -0.22507 -0.477436 15.0178 -0.422104 -0.477443 15.0178 -0.422121 -15.7909 -36.2214 6.67881 2.13208e-006 4.40107 -3.63875e-006 -7.22981 -4.34597 23.5882 -76.476 7.21504 -43.5425 -38.4846 27.6872 -60.7246 -10.9384 -33.9648 7.79925 -1.31742e-006 -9.67996e-007 -9.59965e-006 -6.36111e-015 -1.59028e-015 -1.59028e-015 -1.34657e-006 9.91209e-007 -2.48544e-007 -1.31742e-006 -9.67996e-007 -9.59965e-006 -0.0146071 -8.93409e-005 -2.2048e-006 -1.3466e-006 9.9124e-007 -2.48416e-007 -1.31742e-006 -9.67996e-007 -9.59965e-006 -0.0187576 -0.00117657 5.7947e-005 -1.34661e-006 9.91247e-007 -2.48367e-007 -1.31742e-006 -9.67996e-007 -9.59965e-006 -0.0122484 -0.0032419 0.000675608 -1.34659e-006 9.91236e-007 -2.48398e-007 -1.31742e-006 -9.67996e-007 -9.59965e-006 -6.36111e-015 -1.59028e-015 -1.59028e-015 -1.34657e-006 9.91209e-007 -2.48544e-007 -29.7469 -1.54485 5.55615 -8.55787 -27.6268 55.8739 59.445 -75.3222 67.7994 -16.3496 4.79976 -3.54099 -1.49059e-007 3.31763e-006 -5.66556e-007 -1.79499e-006 8.28248e-007 4.5237e-006 -9.20908e-007 3.0874e-006 -2.93049e-007 -1.49059e-007 3.31763e-006 -5.66556e-007 0.0149431 -9.10226e-005 5.44808e-006 -9.20766e-007 3.08736e-006 -2.93451e-007 -1.49059e-007 3.31763e-006 -5.66556e-007 0.0190047 -0.00119642 -5.85051e-005 -9.20732e-007 3.08734e-006 -2.93553e-007 -1.49059e-007 3.31763e-006 -5.66556e-007 0.0122456 -0.00324111 -0.000673515 -2.03847e-006 4.71811e-006 -9.28917e-007 -1.49059e-007 3.31763e-006 -5.66556e-007 -1.79499e-006 8.28248e-007 4.5237e-006 -9.20908e-007 3.0874e-006 -2.93049e-007 -1.10187 -64.6415 -6.36093 -171.397 74.3933 171.46 1.25109 40.4986 -7.45718 -2.81048e-006 -7.30377e-006 9.4408e-006 -2.37174 -61.265 6.04077 171.108 76.281 -170.962 14.5179 38.3287 3.5474 -6.36111e-015 6.55989e-015 -2.38542e-015 
-56.9021 14.7289 21.7752 -45.1112 -0.000605537 104.18 -0.29952 10.8413 -0.443958 -0.526226 21.6845 -0.85256 -0.526248 21.6845 -0.852545 -18.3734 -51.771 12.9298 -7.6314e-006 6.59089 1.32669e-005 -9.33332 -5.65763 34.1191 -107.96 6.57501 -63.252 -45.9364 15.1906 -83.4949 -11.6026 -48.583 14.1889 -5.96354e-015 6.36111e-015 7.95139e-016 -4.77083e-015 -3.18055e-015 -7.95139e-016 1.59028e-015 0 -0 -5.96354e-015 6.36111e-015 7.95139e-016 -0.0146056 -8.72624e-005 -1.58515e-006 -2.38542e-015 3.18055e-015 7.95139e-016 -5.96354e-015 6.36111e-015 7.95139e-016 -0.0187557 -0.00117742 5.9231e-005 -7.95139e-015 -3.18055e-015 3.18055e-015 -5.96354e-015 6.36111e-015 7.95139e-016 -0.012266 -0.00324628 0.000676412 -4.79494e-007 -7.68751e-007 1.10287e-007 -5.96354e-015 6.36111e-015 7.95139e-016 -4.77083e-015 -3.18055e-015 -7.95139e-016 1.59028e-015 0 -0 -42.8206 -2.19873 7.85804 -1.61514 -18.953 79.6081 140.212 -52.4201 145.397 -23.7215 6.94498 -5.15433 6.36111e-015 -6.36111e-015 -9.54166e-015 6.36111e-015 -9.54166e-015 -9.54166e-015 3.18055e-015 -6.36111e-015 -9.54166e-015 6.36111e-015 -6.36111e-015 -9.54166e-015 0.0149966 -9.09188e-005 2.96295e-006 -8.82781e-032 -3.18055e-015 -1.59028e-015 6.36111e-015 -6.36111e-015 -9.54166e-015 0.0189803 -0.0011844 -5.69165e-005 -3.18055e-015 0 -0 6.36111e-015 -6.36111e-015 -9.54166e-015 0.0122801 -0.00324592 -0.000677434 0 0 -1.59028e-015 6.36111e-015 -6.36111e-015 -9.54166e-015 6.36111e-015 -9.54166e-015 -9.54166e-015 3.18055e-015 -6.36111e-015 -9.54166e-015 -155.222 -85.1915 -165.283 -174.534 29.7598 169.869 15.5232 61.1518 -21.7511 1.18448e-006 1.39342e-007 -1.86561e-007 64.0034 -87.3794 77.8549 174.871 30.7554 -170.701 13.3144 57.5999 11.2422 5.27068e-006 -1.22056e-006 1.86509e-005 
-52.6843 18.258 20.6033 -42.0002 -0.000280596 96.995 -0.29274 10.0092 -0.381834 -0.52902 20.0201 -0.727777 -0.529005 20.0201 -0.727799 -17.9824 -47.6511 11.5099 -1.71524e-006 6.56949 2.97317e-006 -8.83834 -5.34108 31.3933 -101.008 7.00064 -58.9035 -43.5801 18.4347 -79.3476 -12.3367 -45.0906 12.2419 -7.45535e-007 5.26286e-008 1.10271e-006 -7.15299e-007 -5.63958e-007 7.16816e-007 -1.1607e-007 1.39078e-007 8.30111e-007 -7.45535e-007 5.26286e-008 1.10271e-006 -0.0146135 -8.82497e-005 9.48312e-007 -1.16059e-007 1.38972e-007 8.30128e-007 -7.45535e-007 5.26286e-008 1.10271e-006 -0.0187592 -0.00117906 5.94037e-005 5.11128e-007 2.25293e-007 5.57546e-007 -7.45535e-007 5.26286e-008 1.10271e-006 -0.0122761 -0.00324981 0.000677584 -1.16037e-007 1.38992e-007 8.30128e-007 -7.45535e-007 5.26286e-008 1.10271e-006 -7.15299e-007 -5.63958e-007 7.16816e-007 -1.1607e-007 1.39078e-007 8.30111e-007 -39.4401 -1.98845 6.89826 -2.68485 -21.8557 75.3859 132.054 -59.0836 138.053 -22.5592 6.46949 -4.79411 -1.67371e-006 4.41078e-006 -3.69318e-006 -3.36493e-006 -2.79186e-006 -6.37545e-006 -1.67371e-006 4.41078e-006 -3.69318e-006 -1.67371e-006 4.41078e-006 -3.69318e-006 0.0149875 -9.81135e-005 -9.98893e-006 -9.23368e-007 3.10621e-006 -3.81167e-006 -1.67371e-006 4.41078e-006 -3.69318e-006 0.0189972 -0.00119433 -6.45349e-005 -1.6732e-006 4.41013e-006 -3.69389e-006 -1.67371e-006 4.41078e-006 -3.69318e-006 0.0122455 -0.00324522 -0.000680112 -1.67349e-006 4.41028e-006 -3.69362e-006 -1.67371e-006 4.41078e-006 -3.69318e-006 -3.36493e-006 -2.79186e-006 -6.37545e-006 -1.67371e-006 4.41078e-006 -3.69318e-006 -36.6666 -86.8779 -44.6962 -174.188 39.6314 171.421 9.87812 56.5437 -16.2007 -7.14297e-009 -3.84101e-008 -7.298e-007 11.999 -82.6051 23.877 174.491 40.8559 -171.902 14.8278 53.2436 8.29459 4.90097e-006 1.81703e-006 -1.19254e-006 
